{
   "accessors" : [
      {
         "bufferView" : 0,
         "byteOffset" : 0,
         "componentType" : 5123,
         "count" : 137535,
         "max" : [ 65533 ],
         "min" : [ 0 ],
         "name" : "buffer-0-group-0-mesh-0-indices",
         "type" : "SCALAR"
      },
      {
         "bufferView" : 1,
         "byteOffset" : 0,
         "componentType" : 5126,
         "count" : 65534,
         "max" : [ 27.76569938659668, 20.60619926452637, 7.413300037384033 ],
         "min" : [ -27.68569946289062, -20.58189964294434, 0.0006000000284984708 ],
         "name" : "buffer-0-group-0-mesh-0-position",
         "type" : "VEC3"
      },
      {
         "bufferView" : 1,
         "byteOffset" : 786408,
         "componentType" : 5126,
         "count" : 65534,
         "max" : [ 1, 1, 1 ],
         "min" : [ -1, -1, -1 ],
         "name" : "buffer-0-group-0-mesh-0-normal",
         "type" : "VEC3"
      },
      {
         "bufferView" : 2,
         "byteOffset" : 0,
         "componentType" : 5126,
         "count" : 65534,
         "max" : [ 3.279500007629395, 1.601199984550476 ],
         "min" : [ -1.750399947166443, -1.075700044631958 ],
         "name" : "buffer-0-group-0-mesh-0-texcoord",
         "type" : "VEC2"
      },
      {
         "bufferView" : 0,
         "byteOffset" : 275070,
         "componentType" : 5123,
         "count" : 154560,
         "max" : [ 65533 ],
         "min" : [ 0 ],
         "name" : "buffer-0-group-0-mesh-1-indices",
         "type" : "SCALAR"
      },
      {
         "bufferView" : 1,
         "byteOffset" : 1572816,
         "componentType" : 5126,
         "count" : 65534,
         "max" : [ 25.21730041503906, 18.15889930725098, 3.286499977111816 ],
         "min" : [ -25.16139984130859, -18.11660003662109, 0.0812000036239624 ],
         "name" : "buffer-0-group-0-mesh-1-position",
         "type" : "VEC3"
      },
      {
         "bufferView" : 1,
         "byteOffset" : 2359224,
         "componentType" : 5126,
         "count" : 65534,
         "max" : [ 1, 1, 1 ],
         "min" : [ -1, -1, -1 ],
         "name" : "buffer-0-group-0-mesh-1-normal",
         "type" : "VEC3"
      },
      {
         "bufferView" : 2,
         "byteOffset" : 524272,
         "componentType" : 5126,
         "count" : 65534,
         "max" : [ 0.5902000069618225, -0.0006000000284984708 ],
         "min" : [ 0.00139999995008111, -0.9991000294685364 ],
         "name" : "buffer-0-group-0-mesh-1-texcoord",
         "type" : "VEC2"
      },
      {
         "bufferView" : 0,
         "byteOffset" : 584190,
         "componentType" : 5123,
         "count" : 124449,
         "max" : [ 47190 ],
         "min" : [ 0 ],
         "name" : "buffer-0-group-0-mesh-2-indices",
         "type" : "SCALAR"
      },
      {
         "bufferView" : 1,
         "byteOffset" : 3145632,
         "componentType" : 5126,
         "count" : 47191,
         "max" : [ 27.48500061035156, 19.80960083007812, 7.196899890899658 ],
         "min" : [ -27.76569938659668, -20.1919994354248, 0.0812000036239624 ],
         "name" : "buffer-0-group-0-mesh-2-position",
         "type" : "VEC3"
      },
      {
         "bufferView" : 1,
         "byteOffset" : 3711924,
         "componentType" : 5126,
         "count" : 47191,
         "max" : [ 1, 1, 1 ],
         "min" : [ -1, -1, -1 ],
         "name" : "buffer-0-group-0-mesh-2-normal",
         "type" : "VEC3"
      },
      {
         "bufferView" : 2,
         "byteOffset" : 1048544,
         "componentType" : 5126,
         "count" : 47191,
         "max" : [ 0.9994999766349792, -0.0005000000237487257 ],
         "min" : [ 9.999999747378752e-05, -0.9998999834060669 ],
         "name" : "buffer-0-group-0-mesh-2-texcoord",
         "type" : "VEC2"
      }
   ],
   "asset" : {
      "extras" : {
         "GOOGLE_processor_version" : 294144208
      },
      "generator" : "Obj2GltfConverter",
      "version" : "2.0"
   },
   "bufferViews" : [
      {
         "buffer" : 0,
         "byteLength" : 833088,
         "byteOffset" : 0,
         "name" : "buffer-0-bufferview-ushort",
         "target" : 34963
      },
      {
         "buffer" : 0,
         "byteLength" : 4278216,
         "byteOffset" : 833088,
         "byteStride" : 12,
         "name" : "buffer-0-bufferview-vec3",
         "target" : 34962
      },
      {
         "buffer" : 0,
         "byteLength" : 1426072,
         "byteOffset" : 5111304,
         "byteStride" : 8,
         "name" : "buffer-0-bufferview-vec2",
         "target" : 34962
      }
   ],
   "buffers" : [
      {
         "byteLength" : 6537376,
         "name" : "buffer-0",
         "uri" : "asiantown.bin"
      }
   ],
   "cameras" : [
      {
         "perspective" : {
            "yfov" : 0.7853981633974483,
            "znear" : 0.1000000014901161
         },
         "type" : "perspective"
      }
   ],
   "extensions" : {
      "KHR_lights_punctual" : {
         "lights" : [
            {
               "color" : [ 1, 0.9333333333333333, 0.8666666666666667 ],
               "intensity" : 0.25,
               "name" : "headLight",
               "type" : "directional"
            },
            {
               "color" : [ 1, 0.9333333333333333, 0.8666666666666667 ],
               "intensity" : 0.324999988079071,
               "name" : "keyLight",
               "type" : "directional"
            }
         ]
      }
   },
   "extensionsUsed" : [ "GOOGLE_backgrounds", "GOOGLE_camera_settings", "KHR_lights_punctual" ],
   "extras" : {
      "GOOGLE_initial_camera_motion" : {
         "motionPath" : "NONE"
      },
      "GOOGLE_lighting_rig" : {
         "disableShadows" : false
      }
   },
   "images" : [
      {
         "mimeType" : "image/jpeg",
         "name" : "Material__25-diffuse-image",
         "uri" : "textur_deep2.jpg"
      }
   ],
   "materials" : [
      {
         "alphaCutoff" : 0.5,
         "alphaMode" : "OPAQUE",
         "doubleSided" : true,
         "emissiveFactor" : [ 0, 0, 0 ],
         "name" : "Material__25",
         "pbrMetallicRoughness" : {
            "baseColorFactor" : [ 0.5879999995231628, 0.5879999995231628, 0.5879999995231628, 1 ],
            "baseColorTexture" : {
               "index" : 0,
               "texCoord" : 0
            },
            "metallicFactor" : 0,
            "roughnessFactor" : 0.9699476361274719
         }
      }
   ],
   "meshes" : [
      {
         "name" : "buffer-0-mesh-0",
         "primitives" : [
            {
               "attributes" : {
                  "NORMAL" : 2,
                  "POSITION" : 1,
                  "TEXCOORD_0" : 3
               },
               "indices" : 0,
               "material" : 0,
               "mode" : 4
            },
            {
               "attributes" : {
                  "NORMAL" : 6,
                  "POSITION" : 5,
                  "TEXCOORD_0" : 7
               },
               "indices" : 4,
               "material" : 0,
               "mode" : 4
            },
            {
               "attributes" : {
                  "NORMAL" : 10,
                  "POSITION" : 9,
                  "TEXCOORD_0" : 11
               },
               "indices" : 8,
               "material" : 0,
               "mode" : 4
            }
         ]
      }
   ],
   "nodes" : [
      {
         "mesh" : 0,
         "name" : "node-0"
      },
      {
         "children" : [ 2 ]
      },
      {
         "children" : [ 3 ],
         "extras" : {
            "isTransformNode" : 1
         },
         "rotation" : [ -0.7071067811865475, 0, 0, 0.7071067811865476 ],
         "translation" : [ -0.1388284969329835, -0.1266786861419679, 2.610021014131811 ]
      },
      {
         "children" : [ 0 ],
         "translation" : [ 0.1388284969329835, 0.1266786861419679, -2.610021014131811 ]
      },
      {
         "camera" : 0,
         "children" : [ 5 ],
         "rotation" : [
            -0.1451404703229575,
            -0.2429005646179611,
            -0.03678395642481413,
            0.9584260535547037
         ],
         "translation" : [ -22.32315063603996, 10.03636376991965, 36.63788155138294 ]
      },
      {
         "extensions" : {
            "KHR_lights_punctual" : {
               "light" : 0
            }
         },
         "extras" : {
            "isHeadLight" : 1
         },
         "name" : "headLightNode",
         "translation" : [ -38.14293398954088, 19.07146699477044, 19.07146699477044 ]
      },
      {
         "extensions" : {
            "KHR_lights_punctual" : {
               "light" : 1
            }
         },
         "extras" : {
            "isKeyLight" : 1
         },
         "name" : "keyLightNode",
         "rotation" : [ -0.7505326882858236, -0.3752663441429118, 0, 0.5439447166468927 ],
         "scale" : [ 0, 0, 38.52436332943629 ],
         "translation" : [ -38.51297906995429, 75.71614102087787, -36.20345491024867 ]
      }
   ],
   "samplers" : [
      {
         "name" : "Material__25-diffuse-sampler",
         "wrapS" : 10497,
         "wrapT" : 10497
      }
   ],
   "scene" : 0,
   "scenes" : [
      {
         "extensions" : {
            "GOOGLE_backgrounds" : {
               "color" : [ 0, 0.05490196078431372, 0.2941176470588235 ]
            },
            "GOOGLE_camera_settings" : {
               "pivot" : [ -3.781800493828016, -2.031005411945315, 2.407602976983988 ]
            }
         },
         "extras" : {
            "GOOGLE_camera_index" : {
               "cameraIndex" : 0,
               "nodeIndex" : 4
            },
            "GOOGLE_geometry_data" : {
               "stats" : {
                  "centroid" : [ 0.01138425948200099, -1.332585637994717, 2.320908419187625 ],
                  "radius" : 38.14293398954088,
                  "stdev" : 19.12560450329243
               },
               "visualCenterPoint" : [ -0.1388284969329835, -0.1266786861419679, 2.610021014131811 ]
            },
            "GOOGLE_hemi_light" : {
               "groundColor" : [ 0, 0.05490196078431372, 0.2941176470588235 ]
            }
         },
         "name" : "scene-0",
         "nodes" : [ 1, 4, 6 ]
      }
   ],
   "textures" : [
      {
         "name" : "Material__25-diffuse-texture",
         "sampler" : 0,
         "source" : 0
      }
   ]
}
